<svg width="104" height="80" viewBox="0 0 104 80" fill="none" xmlns="http://www.w3.org/2000/svg">
<g opacity="0.7">
<mask id="mask0_864_12685" style="mask-type:luminance" maskUnits="userSpaceOnUse" x="3" y="3" width="101" height="75">
<path d="M3.0064 50.743L81.9128 3.8448L84.4568 8.53333L85.4598 11.0375L87.5832 12.1602L89.678 15.6848L90.2477 18.6849L93.2678 19.2747L97.6178 18.8357L99.3238 22.1143L101.419 25.6389L103.423 27.7863L19.1366 77.8821L13.8281 75.0752L15.2024 73.3045L15.5595 70.2304L10.816 61.8411L10.4844 56.7917L4.75843 56.1407L3.0064 50.743Z" fill="white"/>
</mask>
<g mask="url(#mask0_864_12685)">
<path d="M82.4631 -31.5988L-23.5724 31.4236L16.6565 99.1089L122.692 36.0865L82.4631 -31.5988Z" fill="white"/>
<path d="M-5.13068 57.7788L106.677 -8.67445" stroke="#333133" stroke-width="0.75" stroke-linecap="round" stroke-linejoin="round"/>
<path d="M-2.59015 61.5806L109.218 -4.87269" stroke="#333133" stroke-width="0.75" stroke-linecap="round" stroke-linejoin="round"/>
<path d="M-0.397888 65.7415L111.41 -0.7118" stroke="#333133" stroke-width="0.75" stroke-linecap="round" stroke-linejoin="round"/>
<path d="M2.52393 70.1851L114.332 3.7318" stroke="#333133" stroke-width="0.75" stroke-linecap="round" stroke-linejoin="round"/>
<path d="M5.0271 74.5029L116.835 8.04967" stroke="#333133" stroke-width="0.75" stroke-linecap="round" stroke-linejoin="round"/>
<path d="M7.94897 78.9463L119.757 12.493" stroke="#333133" stroke-width="0.75" stroke-linecap="round" stroke-linejoin="round"/>
<path d="M10.1413 83.1069L121.949 16.6537" stroke="#333133" stroke-width="0.75" stroke-linecap="round" stroke-linejoin="round"/>
<path d="M93.1697 48.8344L62.2539 -3.18164" stroke="#333133" stroke-width="0.75" stroke-linecap="round" stroke-linejoin="round"/>
<path d="M97.1069 46.3639L66.1911 -5.6521" stroke="#333133" stroke-width="0.75" stroke-linecap="round" stroke-linejoin="round"/>
<path d="M101.272 44.0182L70.3563 -7.9978" stroke="#333133" stroke-width="0.75" stroke-linecap="round" stroke-linejoin="round"/>
<path d="M105.452 41.4037L74.5362 -10.6123" stroke="#333133" stroke-width="0.75" stroke-linecap="round" stroke-linejoin="round"/>
<path d="M109.831 38.8305L78.9154 -13.1855" stroke="#333133" stroke-width="0.75" stroke-linecap="round" stroke-linejoin="round"/>
<path d="M114.421 35.9718L83.5051 -16.0442" stroke="#333133" stroke-width="0.75" stroke-linecap="round" stroke-linejoin="round"/>
<path d="M118.586 33.6264L87.6702 -18.3896" stroke="#333133" stroke-width="0.75" stroke-linecap="round" stroke-linejoin="round"/>
<path d="M63.2585 66.6115L32.3427 14.5955" stroke="#333133" stroke-width="0.75" stroke-linecap="round" stroke-linejoin="round"/>
<path d="M67.1957 64.141L36.2798 12.125" stroke="#333133" stroke-width="0.75" stroke-linecap="round" stroke-linejoin="round"/>
<path d="M71.3618 61.7958L40.4459 9.77979" stroke="#333133" stroke-width="0.75" stroke-linecap="round" stroke-linejoin="round"/>
<path d="M75.9515 58.9369L45.0356 6.9209" stroke="#333133" stroke-width="0.75" stroke-linecap="round" stroke-linejoin="round"/>
<path d="M80.3306 56.3639L49.4148 4.3479" stroke="#333133" stroke-width="0.75" stroke-linecap="round" stroke-linejoin="round"/>
<path d="M84.9203 53.5053L54.0045 1.48926" stroke="#333133" stroke-width="0.75" stroke-linecap="round" stroke-linejoin="round"/>
<path d="M89.0864 51.1601L58.1706 -0.855957" stroke="#333133" stroke-width="0.75" stroke-linecap="round" stroke-linejoin="round"/>
<path d="M51.0751 73.8529L20.1593 21.8369" stroke="#333133" stroke-width="0.75" stroke-linecap="round" stroke-linejoin="round"/>
<path d="M55.0123 71.3825L24.0965 19.3665" stroke="#333133" stroke-width="0.75" stroke-linecap="round" stroke-linejoin="round"/>
<path d="M59.1785 69.037L28.2627 17.021" stroke="#333133" stroke-width="0.75" stroke-linecap="round" stroke-linejoin="round"/>
<path d="M21.1647 91.6308L-9.7511 39.6147" stroke="#333133" stroke-width="0.75" stroke-linecap="round" stroke-linejoin="round"/>
<path d="M25.1019 89.1601L-5.8139 37.144" stroke="#333133" stroke-width="0.75" stroke-linecap="round" stroke-linejoin="round"/>
<path d="M28.9364 86.6563L-2.40015 33.9324" stroke="#333133" stroke-width="0.75" stroke-linecap="round" stroke-linejoin="round"/>
<path d="M33.8578 83.9562L2.94196 31.9402" stroke="#333133" stroke-width="0.75" stroke-linecap="round" stroke-linejoin="round"/>
<path d="M38.236 81.3827L7.32013 29.3667" stroke="#333133" stroke-width="0.75" stroke-linecap="round" stroke-linejoin="round"/>
<path d="M42.8256 78.5241L11.9098 26.5081" stroke="#333133" stroke-width="0.75" stroke-linecap="round" stroke-linejoin="round"/>
<path d="M46.9917 76.1789L16.0759 24.1628" stroke="#333133" stroke-width="0.75" stroke-linecap="round" stroke-linejoin="round"/>
</g>
</g>
</svg>
